<svg width="40" height="40" viewBox="0 0 40 40" fill="none" xmlns="http://www.w3.org/2000/svg">
<rect width="40" height="40" rx="4" fill="#21A038"/>
<path d="M22.6774 12.879C24.3455 11.2109 27.05 11.2109 28.718 12.879C30.3861 14.5471 30.3861 17.2516 28.718 18.9197L20.3453 27.2925C17.9896 29.6481 14.1703 29.6481 11.8146 27.2925C9.45893 24.9368 9.45893 21.1175 11.8146 18.7618L17.6724 12.9039C17.9653 12.611 18.4402 12.611 18.7331 12.9039C19.026 13.1968 19.026 13.6717 18.7331 13.9646L12.8753 19.8225C11.1054 21.5924 11.1054 24.4619 12.8753 26.2318C14.6452 28.0017 17.5147 28.0017 19.2846 26.2318L27.6574 17.859C28.7397 16.7767 28.7397 15.0219 27.6574 13.9397C26.5751 12.8574 24.8203 12.8574 23.738 13.9397L15.3778 22.3C14.9831 22.6947 14.9831 23.3346 15.3778 23.7293C15.7725 24.124 16.4124 24.124 16.8071 23.7293L22.6524 17.8839C22.9453 17.591 23.4202 17.591 23.7131 17.8839C24.006 18.1769 24.006 18.6518 23.7131 18.9446L17.8678 24.79C16.8873 25.7705 15.2976 25.7705 14.3171 24.79C13.3366 23.8095 13.3366 22.2198 14.3171 21.2393L22.6774 12.879Z" fill="white"/>
</svg>
