<svg width="25" height="25" viewBox="0 0 25 25" fill="none" xmlns="http://www.w3.org/2000/svg">
<rect x="0.5" y="24.5" width="24" height="24" rx="12" transform="rotate(-90 0.5 24.5)" fill="white"/>
<path d="M6.99096 11.4029C6.73154 11.6623 6.31093 11.6623 6.0515 11.4029C5.79208 11.1435 5.79208 10.7229 6.0515 10.4635L10.8223 5.69266C11.7488 4.76613 13.251 4.76613 14.1775 5.69266L18.9483 10.4635C19.2077 10.7229 19.2077 11.1435 18.9483 11.4029C18.6889 11.6623 18.2683 11.6623 18.0089 11.4029L13.2381 6.63209C13.2142 6.60832 13.1896 6.58593 13.1642 6.5649L13.1642 19.3318C13.1642 19.6987 12.8668 19.9961 12.4999 19.9961C12.1331 19.9961 11.8356 19.6987 11.8356 19.3318L11.8356 6.5649C11.8102 6.58593 11.7856 6.60832 11.7617 6.63209L6.99096 11.4029Z" fill="#21A038"/>
</svg>
