<svg width="32" height="32" viewBox="0 0 32 32" fill="none" xmlns="http://www.w3.org/2000/svg">
<rect width="32" height="32" rx="16" fill="#21A038"/>
<path d="M11.8413 9.77464C11.3521 9.77464 10.9556 9.37808 10.9555 8.88891C10.9555 8.39974 11.3521 8.0032 11.8412 8.00321L20.8372 8.00321C22.5842 8.00322 24.0005 9.41946 24.0005 11.1665L24.0005 20.1624C24.0005 20.6516 23.6039 21.0481 23.1148 21.0481C22.6256 21.0481 22.2291 20.6516 22.2291 20.1624L22.2291 11.1665C22.229 11.1217 22.2269 11.0773 22.2228 11.0335L10.186 23.0703C9.84013 23.4162 9.27928 23.4161 8.93341 23.0703C8.58755 22.7244 8.58751 22.1636 8.93341 21.8177L20.9702 9.78093C20.9264 9.77678 20.882 9.7747 20.8372 9.77463L11.8413 9.77464Z" fill="white"/>
</svg>
