<svg width="24" height="24" viewBox="0 0 24 24" fill="none" xmlns="http://www.w3.org/2000/svg">
<path d="M13.4438 4.74372C13.1021 4.40201 13.1021 3.84799 13.4438 3.50628C13.7855 3.16457 14.3395 3.16457 14.6812 3.50628L20.9652 9.79029C22.1856 11.0107 22.1856 12.9893 20.9652 14.2097L14.6812 20.4937C14.3395 20.8354 13.7855 20.8354 13.4438 20.4937C13.1021 20.152 13.1021 19.598 13.4438 19.2563L19.7278 12.9723C19.7591 12.9409 19.7886 12.9085 19.8163 12.875H3C2.51675 12.875 2.125 12.4832 2.125 12C2.125 11.5168 2.51675 11.125 3 11.125H19.8163C19.7886 11.0915 19.7591 11.0591 19.7278 11.0277L13.4438 4.74372Z" fill="#21A038"/>
</svg>
