<svg width="131" height="24" viewBox="0 0 131 24" fill="none" xmlns="http://www.w3.org/2000/svg">
<rect x="0.834961" width="130" height="24" rx="4" fill="#21A038"/>
<path d="M9.49818 17H8.23818V11.312C8.23818 11.112 8.23818 10.928 8.23818 10.76C8.24618 10.584 8.25418 10.416 8.26218 10.256C8.27018 10.088 8.27818 9.928 8.28618 9.776C8.18218 9.88 8.07418 9.98 7.96218 10.076C7.85018 10.172 7.72218 10.284 7.57818 10.412L6.64218 11.168L5.99418 10.352L8.44218 8.432H9.49818V17ZM16.3654 17H15.1054V11.312C15.1054 11.112 15.1054 10.928 15.1054 10.76C15.1134 10.584 15.1214 10.416 15.1294 10.256C15.1374 10.088 15.1454 9.928 15.1534 9.776C15.0494 9.88 14.9414 9.98 14.8294 10.076C14.7174 10.172 14.5894 10.284 14.4454 10.412L13.5094 11.168L12.8614 10.352L15.3094 8.432H16.3654V17ZM23.2326 17H21.9726V11.312C21.9726 11.112 21.9726 10.928 21.9726 10.76C21.9806 10.584 21.9886 10.416 21.9966 10.256C22.0046 10.088 22.0126 9.928 22.0206 9.776C21.9166 9.88 21.8086 9.98 21.6966 10.076C21.5846 10.172 21.4566 10.284 21.3126 10.412L20.3766 11.168L19.7286 10.352L22.1766 8.432H23.2326V17ZM30.0997 17H28.8397V11.312C28.8397 11.112 28.8397 10.928 28.8397 10.76C28.8477 10.584 28.8557 10.416 28.8637 10.256C28.8717 10.088 28.8797 9.928 28.8877 9.776C28.7837 9.88 28.6757 9.98 28.5637 10.076C28.4517 10.172 28.3237 10.284 28.1797 10.412L27.2437 11.168L26.5957 10.352L29.0437 8.432H30.0997V17ZM36.9669 17H35.7069V11.312C35.7069 11.112 35.7069 10.928 35.7069 10.76C35.7149 10.584 35.7229 10.416 35.7309 10.256C35.7389 10.088 35.7469 9.928 35.7549 9.776C35.6509 9.88 35.5429 9.98 35.4309 10.076C35.3189 10.172 35.1909 10.284 35.0469 10.412L34.1109 11.168L33.4629 10.352L35.9109 8.432H36.9669V17ZM43.8341 17H42.5741V11.312C42.5741 11.112 42.5741 10.928 42.5741 10.76C42.5821 10.584 42.5901 10.416 42.5981 10.256C42.6061 10.088 42.6141 9.928 42.6221 9.776C42.5181 9.88 42.4101 9.98 42.2981 10.076C42.1861 10.172 42.0581 10.284 41.9141 10.412L40.9781 11.168L40.3301 10.352L42.7781 8.432H43.8341V17ZM50.1493 7.88L49.9093 10.136L52.1773 9.5L52.3573 10.712L50.2093 10.892L51.6013 12.74L50.4853 13.34L49.4893 11.324L48.6013 13.34L47.4493 12.74L48.8173 10.892L46.6933 10.712L46.8853 9.5L49.1173 10.136L48.8653 7.88H50.1493ZM56.7352 7.88L56.4952 10.136L58.7632 9.5L58.9432 10.712L56.7952 10.892L58.1872 12.74L57.0712 13.34L56.0752 11.324L55.1872 13.34L54.0352 12.74L55.4032 10.892L53.2792 10.712L53.4712 9.5L55.7032 10.136L55.4512 7.88H56.7352ZM63.3212 7.88L63.0812 10.136L65.3492 9.5L65.5292 10.712L63.3812 10.892L64.7732 12.74L63.6572 13.34L62.6612 11.324L61.7732 13.34L60.6212 12.74L61.9892 10.892L59.8652 10.712L60.0572 9.5L62.2892 10.136L62.0372 7.88H63.3212ZM69.9071 7.88L69.6671 10.136L71.9351 9.5L72.1151 10.712L69.9671 10.892L71.3591 12.74L70.2431 13.34L69.2471 11.324L68.3591 13.34L67.2071 12.74L68.5751 10.892L66.4511 10.712L66.6431 9.5L68.8751 10.136L68.6231 7.88H69.9071ZM76.4931 7.88L76.2531 10.136L78.5211 9.5L78.7011 10.712L76.5531 10.892L77.9451 12.74L76.8291 13.34L75.8331 11.324L74.9451 13.34L73.7931 12.74L75.1611 10.892L73.0371 10.712L73.2291 9.5L75.4611 10.136L75.2091 7.88H76.4931ZM82.587 8.312C83.091 8.312 83.539 8.392 83.931 8.552C84.323 8.704 84.631 8.932 84.855 9.236C85.087 9.54 85.203 9.92 85.203 10.376C85.203 10.72 85.131 11.02 84.987 11.276C84.843 11.532 84.651 11.76 84.411 11.96C84.171 12.152 83.903 12.32 83.607 12.464C83.943 12.632 84.251 12.824 84.531 13.04C84.819 13.248 85.047 13.492 85.215 13.772C85.391 14.052 85.479 14.388 85.479 14.78C85.479 15.26 85.359 15.676 85.119 16.028C84.887 16.372 84.555 16.64 84.123 16.832C83.691 17.024 83.187 17.12 82.611 17.12C81.995 17.12 81.467 17.028 81.027 16.844C80.595 16.66 80.267 16.4 80.043 16.064C79.819 15.72 79.707 15.304 79.707 14.816C79.707 14.424 79.787 14.084 79.947 13.796C80.107 13.508 80.319 13.26 80.583 13.052C80.847 12.844 81.135 12.668 81.447 12.524C81.175 12.364 80.927 12.184 80.703 11.984C80.479 11.776 80.303 11.54 80.175 11.276C80.047 11.012 79.983 10.708 79.983 10.364C79.983 9.916 80.099 9.544 80.331 9.248C80.563 8.944 80.875 8.712 81.267 8.552C81.667 8.392 82.107 8.312 82.587 8.312ZM80.931 14.792C80.931 15.184 81.067 15.508 81.339 15.764C81.611 16.012 82.027 16.136 82.587 16.136C83.131 16.136 83.543 16.012 83.823 15.764C84.111 15.508 84.255 15.18 84.255 14.78C84.255 14.516 84.183 14.284 84.039 14.084C83.903 13.884 83.711 13.708 83.463 13.556C83.223 13.396 82.943 13.252 82.623 13.124L82.443 13.052C82.115 13.188 81.839 13.34 81.615 13.508C81.391 13.676 81.219 13.864 81.099 14.072C80.987 14.28 80.931 14.52 80.931 14.792ZM82.575 9.308C82.183 9.308 81.855 9.404 81.591 9.596C81.335 9.788 81.207 10.068 81.207 10.436C81.207 10.7 81.271 10.924 81.399 11.108C81.527 11.292 81.699 11.452 81.915 11.588C82.131 11.716 82.367 11.84 82.623 11.96C82.879 11.848 83.107 11.728 83.307 11.6C83.507 11.464 83.667 11.304 83.787 11.12C83.907 10.928 83.967 10.7 83.967 10.436C83.967 10.068 83.839 9.788 83.583 9.596C83.327 9.404 82.991 9.308 82.575 9.308ZM92.6702 15.104H91.4822V17H90.2462V15.104H86.2742V14.096L90.2222 8.396H91.4822V14.024H92.6702V15.104ZM90.2462 11.696C90.2462 11.504 90.2462 11.32 90.2462 11.144C90.2542 10.968 90.2622 10.8 90.2702 10.64C90.2782 10.472 90.2822 10.32 90.2822 10.184C90.2902 10.04 90.2982 9.912 90.3062 9.8H90.2582C90.1942 9.96 90.1142 10.124 90.0182 10.292C89.9302 10.46 89.8382 10.608 89.7422 10.736L87.4742 14.024H90.2462V11.696ZM96.3214 8.312C96.8254 8.312 97.2734 8.392 97.6654 8.552C98.0574 8.704 98.3654 8.932 98.5894 9.236C98.8214 9.54 98.9374 9.92 98.9374 10.376C98.9374 10.72 98.8654 11.02 98.7214 11.276C98.5774 11.532 98.3854 11.76 98.1454 11.96C97.9054 12.152 97.6374 12.32 97.3414 12.464C97.6774 12.632 97.9854 12.824 98.2654 13.04C98.5534 13.248 98.7814 13.492 98.9494 13.772C99.1254 14.052 99.2134 14.388 99.2134 14.78C99.2134 15.26 99.0934 15.676 98.8534 16.028C98.6214 16.372 98.2894 16.64 97.8574 16.832C97.4254 17.024 96.9214 17.12 96.3454 17.12C95.7294 17.12 95.2014 17.028 94.7614 16.844C94.3294 16.66 94.0014 16.4 93.7774 16.064C93.5534 15.72 93.4414 15.304 93.4414 14.816C93.4414 14.424 93.5214 14.084 93.6814 13.796C93.8414 13.508 94.0534 13.26 94.3174 13.052C94.5814 12.844 94.8694 12.668 95.1814 12.524C94.9094 12.364 94.6614 12.184 94.4374 11.984C94.2134 11.776 94.0374 11.54 93.9094 11.276C93.7814 11.012 93.7174 10.708 93.7174 10.364C93.7174 9.916 93.8334 9.544 94.0654 9.248C94.2974 8.944 94.6094 8.712 95.0014 8.552C95.4014 8.392 95.8414 8.312 96.3214 8.312ZM94.6654 14.792C94.6654 15.184 94.8014 15.508 95.0734 15.764C95.3454 16.012 95.7614 16.136 96.3214 16.136C96.8654 16.136 97.2774 16.012 97.5574 15.764C97.8454 15.508 97.9894 15.18 97.9894 14.78C97.9894 14.516 97.9174 14.284 97.7734 14.084C97.6374 13.884 97.4454 13.708 97.1974 13.556C96.9574 13.396 96.6774 13.252 96.3574 13.124L96.1774 13.052C95.8494 13.188 95.5734 13.34 95.3494 13.508C95.1254 13.676 94.9534 13.864 94.8334 14.072C94.7214 14.28 94.6654 14.52 94.6654 14.792ZM96.3094 9.308C95.9174 9.308 95.5894 9.404 95.3254 9.596C95.0694 9.788 94.9414 10.068 94.9414 10.436C94.9414 10.7 95.0054 10.924 95.1334 11.108C95.2614 11.292 95.4334 11.452 95.6494 11.588C95.8654 11.716 96.1014 11.84 96.3574 11.96C96.6134 11.848 96.8414 11.728 97.0414 11.6C97.2414 11.464 97.4014 11.304 97.5214 11.12C97.6414 10.928 97.7014 10.7 97.7014 10.436C97.7014 10.068 97.5734 9.788 97.3174 9.596C97.0614 9.404 96.7254 9.308 96.3094 9.308ZM106.405 15.104H105.217V17H103.981V15.104H100.009V14.096L103.957 8.396H105.217V14.024H106.405V15.104ZM103.981 11.696C103.981 11.504 103.981 11.32 103.981 11.144C103.989 10.968 103.997 10.8 104.005 10.64C104.013 10.472 104.017 10.32 104.017 10.184C104.025 10.04 104.033 9.912 104.041 9.8H103.993C103.929 9.96 103.849 10.124 103.753 10.292C103.665 10.46 103.573 10.608 103.477 10.736L101.209 14.024H103.981V11.696Z" fill="white"/>
<rect x="110.835" y="4" width="16" height="16" rx="8" fill="white"/>
<path d="M116.755 8.88703C116.511 8.88703 116.313 8.68875 116.313 8.44416C116.313 8.19958 116.511 8.00131 116.755 8.00131L121.253 8.00132C122.127 8.00132 122.835 8.70944 122.835 9.58298V14.0809C122.835 14.3255 122.637 14.5238 122.392 14.5238C122.148 14.5238 121.949 14.3255 121.949 14.0809V9.58298C121.949 9.56054 121.948 9.53838 121.946 9.51648L115.928 15.5349C115.755 15.7078 115.474 15.7078 115.301 15.5349C115.129 15.3619 115.129 15.0815 115.301 14.9085L121.32 8.89017C121.298 8.8881 121.276 8.88706 121.253 8.88702L116.755 8.88703Z" fill="#21A038"/>
</svg>
