<svg width="24" height="24" viewBox="0 0 24 24" fill="none" xmlns="http://www.w3.org/2000/svg">
<rect width="24" height="24" rx="4.8" fill="#232323"/>
<path fill-rule="evenodd" clip-rule="evenodd" d="M16.193 5.69645C16.6031 5.2864 17.2679 5.2864 17.678 5.69646L18.3037 6.32215C18.7137 6.73221 18.7137 7.39703 18.3037 7.80708L12.256 13.8547C12.0029 14.1078 11.6595 14.2501 11.3014 14.2501H10.2C9.95147 14.2501 9.75 14.0486 9.75 13.8001V12.6986C9.75 12.3406 9.89223 11.9972 10.1454 11.744L16.193 5.69645ZM17.0416 6.33285C16.983 6.27427 16.888 6.27427 16.8295 6.33285L16.0848 7.07747L16.9226 7.9153L17.6673 7.17068C17.7259 7.1121 17.7259 7.01713 17.6673 6.95855L17.0416 6.33285ZM16.2863 8.55169L15.4484 7.71387L10.7818 12.3804C10.6974 12.4649 10.65 12.5793 10.65 12.6986V13.3501H11.3014C11.4208 13.3501 11.5352 13.3026 11.6197 13.2183L16.2863 8.55169Z" fill="white"/>
<path d="M8.69941 7.05015C7.78815 7.05015 7.04941 7.78888 7.04941 8.70015V15.3002C7.04941 16.2114 7.78815 16.9502 8.69941 16.9502H15.2994C16.2107 16.9502 16.9494 16.2114 16.9494 15.3002V12.0002C16.9494 11.7516 17.1509 11.5502 17.3994 11.5502C17.6479 11.5502 17.8494 11.7516 17.8494 12.0002V15.3002C17.8494 16.7085 16.7077 17.8502 15.2994 17.8502H8.69941C7.29109 17.8502 6.14941 16.7085 6.14941 15.3002V8.70015C6.14941 7.29182 7.29109 6.15015 8.69941 6.15015H11.9994C12.2479 6.15015 12.4494 6.35162 12.4494 6.60015C12.4494 6.84867 12.2479 7.05015 11.9994 7.05015H8.69941Z" fill="white"/>
</svg>
