<svg width="16" height="16" viewBox="0 0 16 16" fill="none" xmlns="http://www.w3.org/2000/svg">
<path d="M14.8943 1.10523C15.1872 1.39811 15.1872 1.873 14.8943 2.16589L9.06066 7.99952L14.8943 13.8332C15.1872 14.126 15.1872 14.6009 14.8943 14.8938C14.6014 15.1867 14.1265 15.1867 13.8336 14.8938L8 9.06018L2.16637 14.8938C1.87349 15.1867 1.39859 15.1867 1.10571 14.8938C0.812825 14.6009 0.812825 14.126 1.10571 13.8332L6.93934 7.99952L1.10571 2.16589C0.812818 1.873 0.812825 1.39811 1.10571 1.10523C1.39859 0.812345 1.87348 0.812338 2.16637 1.10523L8 6.93886L13.8336 1.10523C14.1265 0.812338 14.6014 0.812345 14.8943 1.10523Z" fill="white"/>
</svg>
