<svg width="24" height="24" viewBox="0 0 24 24" fill="none" xmlns="http://www.w3.org/2000/svg">
<g clip-path="url(#clip0_79_3385)">
<path d="M18.8943 5.1057C19.1872 5.39859 19.1872 5.87347 18.8943 6.16636L13.0607 12L18.8943 17.8336C19.1872 18.1265 19.1872 18.6014 18.8943 18.8943C18.6014 19.1872 18.1265 19.1872 17.8336 18.8943L12 13.0607L6.16637 18.8943C5.87349 19.1872 5.39859 19.1872 5.10571 18.8943C4.81283 18.6014 4.81283 18.1265 5.10571 17.8336L10.9393 12L5.10571 6.16636C4.81282 5.87347 4.81283 5.39859 5.10571 5.1057C5.39859 4.81282 5.87348 4.81281 6.16637 5.1057L12 10.9393L17.8336 5.1057C18.1265 4.81281 18.6014 4.81282 18.8943 5.1057Z" fill="#232323"/>
</g>
<defs>
<clipPath id="clip0_79_3385">
<rect width="24" height="24" fill="white"/>
</clipPath>
</defs>
</svg>
