<svg width="24" height="24" viewBox="0 0 24 24" fill="none" xmlns="http://www.w3.org/2000/svg">
<path d="M13.8779 4.5C13.8779 5.53553 13.0384 6.375 12.0029 6.375C10.9674 6.375 10.1279 5.53553 10.1279 4.5C10.1279 3.46447 10.9674 2.625 12.0029 2.625C13.0384 2.625 13.8779 3.46447 13.8779 4.5Z" fill="#232323"/>
<path d="M13.8779 12.0026C13.8779 13.0381 13.0385 13.8776 12.0029 13.8776C10.9674 13.8776 10.1279 13.0381 10.1279 12.0026C10.1279 10.967 10.9674 10.1276 12.0029 10.1276C13.0385 10.1276 13.8779 10.967 13.8779 12.0026Z" fill="#232323"/>
<path d="M12.002 21.3799C13.0375 21.3799 13.877 20.5405 13.877 19.5049C13.877 18.4694 13.0375 17.6299 12.002 17.6299C10.9664 17.6299 10.127 18.4694 10.127 19.5049C10.127 20.5405 10.9664 21.3799 12.002 21.3799Z" fill="#232323"/>
</svg>
