<svg width="24" height="24" viewBox="0 0 24 24" fill="none" xmlns="http://www.w3.org/2000/svg">
<path d="M14.6338 2.61041C14.3409 2.31751 14.3409 1.84264 14.6338 1.54975C14.9267 1.25685 15.4015 1.25685 15.6944 1.54975L19.6219 5.47725C20.464 6.31932 20.464 7.68458 19.6219 8.52665L15.6944 12.4542C15.4015 12.7471 14.9267 12.7471 14.6338 12.4542C14.3409 12.1613 14.3409 11.6864 14.6338 11.3935L18.2753 7.75195H4.5C4.08579 7.75195 3.75 7.41617 3.75 7.00195C3.75 6.58774 4.08579 6.25195 4.5 6.25195H18.2753L14.6338 2.61041Z" fill="white"/>
<path d="M9.36288 12.6098C9.65578 12.3169 9.65578 11.842 9.36288 11.5491C9.06999 11.2562 8.59512 11.2562 8.30222 11.5491L4.37472 15.4766C3.53265 16.3187 3.53265 17.684 4.37472 18.526L8.30222 22.4535C8.59512 22.7464 9.06999 22.7464 9.36288 22.4535C9.65578 22.1607 9.65578 21.6858 9.36288 21.3929L5.72134 17.7513H19.4966C19.9108 17.7513 20.2466 17.4156 20.2466 17.0013C20.2466 16.5871 19.9108 16.2513 19.4966 16.2513H5.72134L9.36288 12.6098Z" fill="white"/>
</svg>
