<svg width="24" height="24" viewBox="0 0 24 24" fill="none" xmlns="http://www.w3.org/2000/svg">
<path d="M20.5 3H3.5C2.67157 3 2 3.67157 2 4.5V7.22807C2 7.7125 2.23395 8.16711 2.62814 8.44867L8.58124 12.7009C8.84403 12.8886 9 13.1917 9 13.5146V21.259C9 22.0308 9.83721 22.5116 10.5039 22.1227L14.5039 19.7894C14.8111 19.6102 15 19.2813 15 18.9256V13.5146C15 13.1917 15.156 12.8886 15.4188 12.7009L21.3719 8.44867C21.7661 8.16711 22 7.7125 22 7.22807V4.5C22 3.67157 21.3284 3 20.5 3Z" fill="url(#paint0_linear_1112_4964)"/>
<defs>
<linearGradient id="paint0_linear_1112_4964" x1="2" y1="3" x2="21.4911" y2="2.49811" gradientUnits="userSpaceOnUse">
<stop stop-color="#83DA4E"/>
<stop offset="0.511453" stop-color="#21A038"/>
<stop offset="0.98" stop-color="#54ACB8"/>
</linearGradient>
</defs>
</svg>
