<svg width="24" height="24" viewBox="0 0 24 24" fill="none" xmlns="http://www.w3.org/2000/svg">
<path fill-rule="evenodd" clip-rule="evenodd" d="M2.75925 8.88188C2.77373 8.79032 2.80479 8.70427 2.84924 8.6269C4.22185 4.90447 7.80093 2.25 12 2.25C16.1991 2.25 19.7782 4.90447 21.1508 8.6269C21.1952 8.70427 21.2263 8.79031 21.2408 8.88188C21.571 9.86092 21.75 10.9096 21.75 12C21.75 13.0904 21.571 14.1391 21.2408 15.1181C21.2263 15.2097 21.1952 15.2957 21.1508 15.3731C19.7782 19.0955 16.1991 21.75 12 21.75C7.80093 21.75 4.22185 19.0955 2.84924 15.3731C2.80479 15.2957 2.77373 15.2097 2.75925 15.1181C2.42901 14.1391 2.25 13.0904 2.25 12C2.25 10.9096 2.42901 9.86092 2.75925 8.88188ZM9.23025 4.22645C7.23943 4.93584 5.60125 6.38831 4.64956 8.25H7.85155C8.04766 7.17104 8.32702 6.18906 8.67441 5.34954C8.84088 4.94724 9.02616 4.56992 9.23025 4.22645ZM4.64956 15.75C5.60124 17.6117 7.2394 19.0641 9.2302 19.7735C9.02613 19.4301 8.84087 19.0528 8.67441 18.6505C8.32701 17.811 8.04765 16.829 7.85154 15.75H4.64956ZM7.63994 14.25H4.06055C3.85825 13.5348 3.75 12.78 3.75 12C3.75 11.22 3.85825 10.4652 4.06055 9.75H7.63995C7.56568 10.4737 7.52669 11.2274 7.52669 12C7.52669 12.7726 7.56568 13.5263 7.63994 14.25ZM9.37842 15.75C9.55282 16.6262 9.78532 17.4121 10.0604 18.077C10.3751 18.8374 10.7307 19.4035 11.0872 19.768C11.4414 20.1299 11.7497 20.2497 12.0007 20.2497C12.2517 20.2497 12.56 20.1299 12.9141 19.768C13.2707 19.4035 13.6263 18.8374 13.9409 18.077C14.2161 17.4121 14.4486 16.6262 14.623 15.75H9.37842ZM14.853 14.25H9.14841C9.06935 13.536 9.02669 12.7819 9.02669 12C9.02669 11.2182 9.06935 10.464 9.14842 9.75H14.853C14.932 10.464 14.9747 11.2182 14.9747 12C14.9747 12.7819 14.932 13.536 14.853 14.25ZM16.1498 15.75C15.9537 16.829 15.6744 17.811 15.327 18.6505C15.1606 19.0526 14.9755 19.4296 14.7715 19.7729C16.7616 19.0633 18.399 17.6111 19.3504 15.75H16.1498ZM19.9395 14.25H16.3614C16.4357 13.5263 16.4747 12.7726 16.4747 12C16.4747 11.2274 16.4357 10.4737 16.3614 9.75H19.9395C20.1417 10.4652 20.25 11.22 20.25 12C20.25 12.78 20.1417 13.5348 19.9395 14.25ZM14.7715 4.22707C16.7615 4.93669 18.399 6.38885 19.3504 8.25H16.1498C15.9537 7.17104 15.6744 6.18906 15.327 5.34954C15.1606 4.94748 14.9754 4.57037 14.7715 4.22707ZM13.9409 5.92307C14.2161 6.58792 14.4485 7.37386 14.6229 8.25H9.37843C9.55283 7.37386 9.78532 6.58792 10.0604 5.92307C10.3751 5.16268 10.7307 4.59653 11.0872 4.23209C11.4414 3.87013 11.7497 3.75037 12.0007 3.75037C12.2517 3.75037 12.56 3.87013 12.9141 4.23209C13.2707 4.59653 13.6263 5.16268 13.9409 5.92307Z" fill="#21A038"/>
</svg>
