<svg width="24" height="24" viewBox="0 0 24 24" fill="none" xmlns="http://www.w3.org/2000/svg">
<path d="M13.0137 7.84058C13.0137 8.4619 12.51 8.96558 11.8887 8.96558C11.2674 8.96558 10.7637 8.4619 10.7637 7.84058C10.7637 7.21926 11.2674 6.71558 11.8887 6.71558C12.51 6.71558 13.0137 7.21926 13.0137 7.84058Z" fill="white"/>
<path d="M10.7314 10.5C10.3172 10.5 9.98145 10.8358 9.98145 11.25C9.98145 11.6642 10.3172 12 10.7314 12H11.4814V16H10.2314C9.81724 16 9.48145 16.3358 9.48145 16.75C9.48145 17.1642 9.81724 17.5 10.2314 17.5H14.2314C14.6456 17.5 14.9814 17.1642 14.9814 16.75C14.9814 16.3358 14.6456 16 14.2314 16H12.9814V11.75C12.9814 11.0596 12.4218 10.5 11.7314 10.5H10.7314Z" fill="white"/>
</svg>
