<svg width="20" height="21" viewBox="0 0 20 21" fill="none" xmlns="http://www.w3.org/2000/svg">
<path fill-rule="evenodd" clip-rule="evenodd" d="M10.0002 0C5.71997 0 2.25018 3.46979 2.25018 7.75V12.1275C2.25018 12.21 2.22388 12.2903 2.17511 12.3568L0.520619 14.613C-0.205961 15.6037 0.501579 17 1.73023 17H7.00018V17.4999C7.00018 19.1568 8.34337 20.4999 10.0002 20.4999C11.6571 20.4999 13.0002 19.1568 13.0002 17.4999V17H18.2702C19.4988 17 20.2063 15.6037 19.4798 14.613L17.8253 12.3568C17.7765 12.2903 17.7502 12.21 17.7502 12.1275V7.75C17.7502 3.46979 14.2804 0 10.0002 0ZM3.75018 7.75C3.75018 4.29822 6.5484 1.5 10.0002 1.5C13.452 1.5 16.2502 4.29822 16.2502 7.75V12.1275C16.2502 12.529 16.3782 12.9201 16.6157 13.2439L18.2702 15.5H1.73023L3.38472 13.2439C3.62216 12.9201 3.75018 12.529 3.75018 12.1275V7.75ZM11.5002 17H8.50017V17.4999C8.50017 18.3284 9.17177 18.9999 10.0002 18.9999C10.8286 18.9999 11.5002 18.3284 11.5002 17.4999V17Z" fill="white"/>
</svg>
