<svg width="24" height="24" viewBox="0 0 24 24" fill="none" xmlns="http://www.w3.org/2000/svg">
<path d="M13.8777 4.5C13.8777 5.53553 13.0382 6.375 12.0027 6.375C10.9672 6.375 10.1277 5.53553 10.1277 4.5C10.1277 3.46447 10.9672 2.625 12.0027 2.625C13.0382 2.625 13.8777 3.46447 13.8777 4.5Z" fill="#232323"/>
<path d="M13.8775 12.0026C13.8775 13.0381 13.0381 13.8776 12.0025 13.8776C10.967 13.8776 10.1275 13.0381 10.1275 12.0026C10.1275 10.967 10.967 10.1276 12.0025 10.1276C13.0381 10.1276 13.8775 10.967 13.8775 12.0026Z" fill="#232323"/>
<path d="M12.002 21.3799C13.0375 21.3799 13.877 20.5405 13.877 19.5049C13.877 18.4694 13.0375 17.6299 12.002 17.6299C10.9664 17.6299 10.127 18.4694 10.127 19.5049C10.127 20.5405 10.9664 21.3799 12.002 21.3799Z" fill="#232323"/>
</svg>
