<svg width="20" height="20" viewBox="0 0 20 20" fill="none" xmlns="http://www.w3.org/2000/svg">
<path fill-rule="evenodd" clip-rule="evenodd" d="M5.80039 3.59985C5.02719 3.59985 4.40039 4.22665 4.40039 4.99985V14.9999C4.40039 15.7731 5.02719 16.3999 5.80039 16.3999H7.80039C8.57359 16.3999 9.20039 15.7731 9.20039 14.9999V4.99985C9.20039 4.22665 8.57359 3.59985 7.80039 3.59985H5.80039ZM5.60039 4.99985C5.60039 4.8894 5.68993 4.79985 5.80039 4.79985H7.80039C7.91085 4.79985 8.00039 4.8894 8.00039 4.99985V14.9999C8.00039 15.1103 7.91085 15.1999 7.80039 15.1999H5.80039C5.68993 15.1999 5.60039 15.1103 5.60039 14.9999V4.99985Z" fill="#F79E1B"/>
<path fill-rule="evenodd" clip-rule="evenodd" d="M12.2008 3.59985C11.4276 3.59985 10.8008 4.22665 10.8008 4.99985V14.9999C10.8008 15.7731 11.4276 16.3999 12.2008 16.3999H14.2008C14.974 16.3999 15.6008 15.7731 15.6008 14.9999V4.99985C15.6008 4.22665 14.974 3.59985 14.2008 3.59985H12.2008ZM12.0008 4.99985C12.0008 4.8894 12.0903 4.79985 12.2008 4.79985H14.2008C14.3113 4.79985 14.4008 4.8894 14.4008 4.99985V14.9999C14.4008 15.1103 14.3113 15.1999 14.2008 15.1999H12.2008C12.0903 15.1999 12.0008 15.1103 12.0008 14.9999V4.99985Z" fill="#F79E1B"/>
</svg>
