<svg width="24" height="24" viewBox="0 0 24 24" fill="none" xmlns="http://www.w3.org/2000/svg">
<path d="M8 3.75C6.75736 3.75 5.75 4.75736 5.75 6V8H4.25V6C4.25 3.92893 5.92893 2.25 8 2.25H13.2564C13.9857 2.25 14.6852 2.53973 15.2009 3.05546L18.9445 6.79902C19.2809 7.13541 19.5211 7.54997 19.6475 8H18.0048C17.9682 7.9506 17.9278 7.90367 17.8838 7.85968L14.1403 4.11612C13.9059 3.8817 13.5879 3.75 13.2564 3.75H8Z" fill="#222222"/>
<path d="M4.25 18H5.75C5.75 19.2426 6.75736 20.25 8 20.25H16C17.2426 20.25 18.25 19.2426 18.25 18H19.75C19.75 20.0711 18.071 21.75 16 21.75H8C5.92893 21.75 4.25 20.0711 4.25 18Z" fill="#222222"/>
<path fill-rule="evenodd" clip-rule="evenodd" d="M7.29329 10.0711C6.97529 9.89706 6.60329 9.81006 6.17729 9.81006H2.94629V16.2001H4.40429V13.9231H6.17729C6.60329 13.9231 6.97529 13.8391 7.29329 13.6711C7.61729 13.4971 7.86329 13.2541 8.03129 12.9421C8.20529 12.6301 8.29229 12.2731 8.29229 11.8711C8.29229 11.4691 8.20529 11.1121 8.03129 10.8001C7.86329 10.4881 7.61729 10.2451 7.29329 10.0711ZM4.39529 12.7171V11.0161H5.89829C6.19229 11.0161 6.42329 11.0911 6.59129 11.2411C6.75929 11.3911 6.84329 11.6011 6.84329 11.8711C6.84329 12.1411 6.75929 12.3511 6.59129 12.5011C6.42329 12.6451 6.19229 12.7171 5.89829 12.7171H4.39529Z" fill="#222222"/>
<path fill-rule="evenodd" clip-rule="evenodd" d="M13.3533 10.2151C12.9093 9.94506 12.3843 9.81006 11.7783 9.81006H9.11426V16.2001H11.7783C12.3843 16.2001 12.9093 16.0651 13.3533 15.7951C13.7973 15.5251 14.1363 15.1501 14.3703 14.6701C14.6103 14.1841 14.7303 13.6291 14.7303 13.0051C14.7303 12.3811 14.6103 11.8291 14.3703 11.3491C14.1363 10.8631 13.7973 10.4851 13.3533 10.2151ZM10.5633 14.9761V11.0341H11.5623C12.0543 11.0341 12.4533 11.1961 12.7593 11.5201C13.0653 11.8441 13.2183 12.3391 13.2183 13.0051C13.2183 13.6711 13.0653 14.1661 12.7593 14.4901C12.4533 14.8141 12.0543 14.9761 11.5623 14.9761H10.5633Z" fill="#222222"/>
<path d="M20.5941 9.81006H15.9951V16.2001H17.4531V13.6891H20.3691V12.4651H17.4531V11.0341H20.5941V9.81006Z" fill="#222222"/>
</svg>
