<svg width="18" height="18" viewBox="0 0 18 18" fill="none" xmlns="http://www.w3.org/2000/svg">
<path d="M9.70312 12.6562C9.70312 13.0446 9.38835 13.3594 9 13.3594C8.61165 13.3594 8.29688 13.0446 8.29688 12.6562C8.29688 12.2679 8.61165 11.9531 9 11.9531C9.38835 11.9531 9.70312 12.2679 9.70312 12.6562Z" fill="#21A038"/>
<path d="M7.3125 7.59375C7.3125 6.88534 7.99521 6.1875 9.00028 6.1875C10.0053 6.1875 10.688 6.88534 10.688 7.59375C10.688 7.93389 10.5909 8.13836 10.4648 8.29136C10.3224 8.46405 10.1185 8.60226 9.84037 8.76572C9.80544 8.78625 9.76821 8.80774 9.72939 8.83018C9.49489 8.96546 9.19963 9.1359 8.96917 9.34982C8.66599 9.63124 8.43778 10.0146 8.43778 10.5469C8.43778 10.8575 8.68961 11.1094 9.00028 11.1094C9.31089 11.1094 9.56278 10.8575 9.56278 10.5469C9.56278 10.384 9.61577 10.2846 9.73457 10.1743C9.86439 10.0538 10.0321 9.95619 10.2729 9.81591C10.3163 9.79065 10.362 9.76404 10.4104 9.73564C10.6948 9.56852 11.0534 9.34605 11.333 9.00686C11.6288 8.64793 11.813 8.18921 11.813 7.59375C11.813 6.12754 10.4807 5.0625 9.00028 5.0625C7.51978 5.0625 6.1875 6.12754 6.1875 7.59375C6.1875 7.90442 6.43933 8.15625 6.75 8.15625C7.06067 8.15625 7.3125 7.90442 7.3125 7.59375Z" fill="#21A038"/>
<path fill-rule="evenodd" clip-rule="evenodd" d="M1.6875 9C1.6875 4.96142 4.96142 1.6875 9 1.6875C13.0386 1.6875 16.3125 4.96142 16.3125 9C16.3125 13.0386 13.0386 16.3125 9 16.3125C4.96142 16.3125 1.6875 13.0386 1.6875 9ZM9 2.8125C5.58274 2.8125 2.8125 5.58274 2.8125 9C2.8125 12.4172 5.58274 15.1875 9 15.1875C12.4172 15.1875 15.1875 12.4172 15.1875 9C15.1875 5.58274 12.4172 2.8125 9 2.8125Z" fill="#21A038"/>
</svg>
