<svg width="29" height="29" viewBox="0 0 29 29" fill="none" xmlns="http://www.w3.org/2000/svg">
<path d="M13.9587 5.15112C15.9404 5.03639 17.9072 5.5543 19.5754 6.6301C20.5944 7.28724 21.4697 8.13178 22.1592 9.1118H18.7292C17.895 9.1118 17.2188 9.78803 17.2188 10.6222C17.2188 11.4564 17.895 12.1327 18.7292 12.1327H25.3751C25.7756 12.1327 26.1599 11.9735 26.4431 11.6902C26.7263 11.407 26.8855 11.0228 26.8855 10.6222V3.6699C26.8855 2.83571 26.2093 2.15948 25.3751 2.15948C24.5408 2.15948 23.8646 2.83571 23.8646 3.6699V6.3943C23.0992 5.50997 22.2077 4.73312 21.2126 4.09139C19.0063 2.66858 16.405 1.9836 13.7841 2.13534C11.1633 2.28708 8.65843 3.26769 6.63111 4.93563C4.60379 6.60356 3.1589 8.87253 2.505 11.4151C2.29722 12.2229 2.7837 13.0463 3.5916 13.2541C4.39948 13.4618 5.22285 12.9754 5.43062 12.1675C5.92505 10.2451 7.01752 8.52954 8.55037 7.26841C10.0832 6.00729 11.9771 5.26585 13.9587 5.15112Z" fill="#21A038"/>
<path d="M9.42018 22.3673C11.0863 23.443 13.051 23.9621 15.0311 23.8495C17.0112 23.737 18.9044 22.9987 20.4379 21.7411C21.9715 20.4834 23.0662 18.7713 23.5642 16.8517C23.7736 16.0443 24.5981 15.5595 25.4055 15.769C26.2129 15.9784 26.6977 16.8028 26.4882 17.6103C25.8295 20.1492 24.3818 22.4135 22.3535 24.0769C20.3253 25.7402 17.8214 26.7166 15.2026 26.8655C12.5837 27.0144 9.98528 26.3279 7.78164 24.9051C6.78876 24.2641 5.89913 23.4884 5.13509 22.6057V25.3302C5.13509 26.1644 4.45886 26.8406 3.62467 26.8406C2.79049 26.8406 2.11426 26.1644 2.11426 25.3302V18.3779C2.11426 17.9772 2.2734 17.5931 2.55665 17.3099C2.83991 17.0265 3.22409 16.8675 3.62467 16.8675H10.2705C11.1047 16.8675 11.7809 17.5437 11.7809 18.3779C11.7809 19.212 11.1047 19.8883 10.2705 19.8883H6.84054C7.52908 20.867 8.40296 21.7105 9.42018 22.3673Z" fill="#21A038"/>
</svg>
