<svg width="20" height="20" viewBox="0 0 20 20" fill="none" xmlns="http://www.w3.org/2000/svg">
<path fill-rule="evenodd" clip-rule="evenodd" d="M10.0002 2.19995C5.69237 2.19995 2.2002 5.69213 2.2002 9.99995C2.2002 14.3078 5.69237 17.8 10.0002 17.8C14.308 17.8 17.8002 14.3078 17.8002 9.99995C17.8002 5.69213 14.308 2.19995 10.0002 2.19995ZM5.77675 4.928C6.92124 3.97393 8.39369 3.39995 10.0002 3.39995C13.6452 3.39995 16.6002 6.35487 16.6002 9.99995C16.6002 11.6064 16.0262 13.0789 15.0721 14.2234L5.77675 4.928ZM4.92822 5.77653C3.97416 6.92102 3.4002 8.39346 3.4002 9.99995C3.4002 13.645 6.35512 16.6 10.0002 16.6C11.6067 16.6 13.0792 16.026 14.2236 15.072L4.92822 5.77653Z" fill="#FF4D4D"/>
</svg>
