<svg width="32" height="32" viewBox="0 0 32 32" fill="none" xmlns="http://www.w3.org/2000/svg">
<path fill-rule="evenodd" clip-rule="evenodd" d="M3.16588 15.1867C10.3216 12.0691 15.0932 10.0137 17.4807 9.0207C24.2973 6.18538 25.7139 5.69286 26.6371 5.6766C26.8401 5.67302 27.2941 5.72334 27.5883 5.96198C28.0285 6.31922 28.0272 7.08286 27.9787 7.59302C27.6092 11.4744 26.0108 20.8933 25.1976 25.2405C24.8536 27.0799 24.176 27.6967 23.5201 27.7571C22.0947 27.8883 21.0123 26.8151 19.6317 25.91C17.4713 24.4939 16.2508 23.6123 14.1537 22.2304C11.7303 20.6333 13.3014 19.7556 14.6825 18.3211C15.044 17.9456 21.3245 12.233 21.446 11.7148C21.4612 11.65 21.4753 11.4084 21.3319 11.2808C21.1883 11.1533 20.9764 11.1969 20.8236 11.2316C20.6069 11.2808 17.1557 13.5619 10.4699 18.0751C9.49028 18.7477 8.60296 19.0755 7.80796 19.0583C6.93153 19.0393 5.24565 18.5627 3.99236 18.1553C2.45516 17.6556 1.23342 17.3915 1.3398 16.5428C1.39521 16.1008 2.00391 15.6488 3.16588 15.1867Z" fill="#21A038"/>
</svg>
