<svg width="32" height="32" viewBox="0 0 32 32" fill="none" xmlns="http://www.w3.org/2000/svg">
<path fill-rule="evenodd" clip-rule="evenodd" d="M11.532 19.8226C11.5852 21.0791 12.4874 22.0315 13.4875 22.6905C15.592 24.0773 17.6145 25.656 19.7867 26.9321C20.4826 27.341 21.4401 27.7573 22.628 27.648C24.6116 27.4655 25.4935 25.6467 25.8177 23.9132C26.4985 20.2738 27.856 12.2895 28.1756 8.93191C28.3625 6.96799 27.1481 5.09778 25.024 5.1352C24.2774 5.14835 23.5153 5.3625 22.3906 5.77063C21.2314 6.19127 19.4623 6.90722 16.6106 8.09336C14.593 8.93251 10.5847 10.6592 4.60063 13.2663C3.37018 13.7595 2.0365 14.5521 1.85487 16.0009C1.57918 18.2001 3.7537 18.9542 5.44608 19.5043C7.47086 20.1625 9.50678 20.7837 11.532 19.8226ZM11.4979 17.5349C9.70091 18.7689 8.01214 18.2355 6.06436 17.6023C4.77492 17.1832 3.7501 16.9616 3.83934 16.2497C3.88582 15.8789 4.3964 15.4998 5.37109 15.1122C11.3735 12.497 15.376 10.773 17.3786 9.93999C23.0967 7.56167 24.2848 7.14853 25.0592 7.13488C26.0117 7.1181 26.2633 7.91461 26.1846 8.74242C25.8747 11.9982 24.5339 19.899 23.8518 23.5455C23.5632 25.0884 22.9949 25.6058 22.4447 25.6564C21.4978 25.7436 20.7314 25.1972 19.8783 24.589C18.1489 23.3561 16.3618 22.1894 14.588 21.0205C12.8384 19.8676 13.5708 19.1615 14.5475 18.22C16.1866 16.6399 17.8798 15.1164 19.5021 13.5189C20.1837 12.8476 20.6744 12.3296 20.7049 12.1999C20.7898 11.8377 20.4712 11.7291 20.1828 11.7945C20.001 11.8358 17.106 13.7492 11.4979 17.5349Z" fill="#21A038"/>
</svg>
