<svg width="24" height="24" viewBox="0 0 24 24" fill="none" xmlns="http://www.w3.org/2000/svg">
<path fill-rule="evenodd" clip-rule="evenodd" d="M2.3744 11.3905C7.74118 9.05229 11.3199 7.5108 13.1105 6.76602C18.223 4.63953 19.2854 4.27014 19.9778 4.25794C20.1301 4.25526 20.4706 4.293 20.6912 4.47198C21.0214 4.73991 21.0204 5.31264 20.984 5.69526C20.7069 8.60626 19.5081 15.6705 18.8982 18.9309C18.6402 20.3104 18.132 20.773 17.6401 20.8183C16.571 20.9167 15.7592 20.1118 14.7238 19.433C13.1035 18.3709 12.1881 17.7097 10.6153 16.6733C8.79774 15.4755 9.97602 14.8172 11.0119 13.7413C11.283 13.4597 15.9934 9.17526 16.0845 8.78659C16.0959 8.73799 16.1065 8.55679 15.9989 8.46112C15.8912 8.36544 15.7323 8.39816 15.6177 8.42418C15.4552 8.46106 12.8668 10.1719 7.85241 13.5568C7.1177 14.0613 6.45221 14.3071 5.85596 14.2942C5.19864 14.28 3.93423 13.9225 2.99426 13.617C1.84136 13.2422 0.925057 13.0441 1.00484 12.4076C1.0464 12.0761 1.50292 11.7371 2.3744 11.3905Z" fill="white"/>
</svg>
