<svg width="95" height="82" viewBox="0 0 95 82" fill="none" xmlns="http://www.w3.org/2000/svg">
<g clip-path="url(#clip0_518_13427)">
<path fill-rule="evenodd" clip-rule="evenodd" d="M17.9965 0.40298L0.808943 36.5055C0.74354 36.6398 0.722814 36.7915 0.749796 36.9384C0.776779 37.0853 0.850055 37.2197 0.958908 37.322L47.3785 81.8031C47.5103 81.9296 47.6859 82.0002 47.8686 82.0002C48.0513 82.0002 48.2269 81.9296 48.3588 81.8031L94.7783 37.3248C94.8872 37.2225 94.9605 37.0881 94.9874 36.9412C95.0144 36.7943 94.9937 36.6426 94.9283 36.5083L77.7407 0.405757C77.6852 0.28451 77.596 0.181798 77.4837 0.109896C77.3715 0.0379953 77.2409 -5.32855e-05 77.1075 0.000297884H18.6353C18.5013 -0.00136884 18.3697 0.0357633 18.2564 0.107215C18.143 0.178667 18.0528 0.281385 17.9965 0.40298Z" fill="#50AF95"/>
<path fill-rule="evenodd" clip-rule="evenodd" d="M53.8317 40.2129C53.4984 40.2379 51.7766 40.3407 47.9359 40.3407C44.881 40.3407 42.7121 40.2491 41.9512 40.2129C30.1456 39.6936 21.3338 37.6386 21.3338 35.178C21.3338 32.7175 30.1456 30.6652 41.9512 30.1376V38.1662C42.7232 38.2218 44.9338 38.3523 47.9886 38.3523C51.6544 38.3523 53.4901 38.1995 53.8206 38.169V30.1431C65.6011 30.668 74.3935 32.7231 74.3935 35.178C74.3935 37.633 65.6039 39.6881 53.8206 40.2102L53.8317 40.2129ZM53.8317 29.3128V22.1283H70.2722V11.1726H25.5106V22.1283H41.9484V29.31C28.5877 29.9237 18.54 32.5703 18.54 35.7418C18.54 38.9133 28.5877 41.5571 41.9484 42.1736V65.1959H53.8289V42.1653C67.1591 41.5515 77.19 38.9077 77.19 35.739C77.19 32.5703 67.1674 29.9265 53.8289 29.31L53.8317 29.3128Z" fill="white"/>
</g>
<defs>
<clipPath id="clip0_518_13427">
<rect width="94.2638" height="82" fill="white" transform="translate(0.736328)"/>
</clipPath>
</defs>
</svg>
