<svg width="24" height="24" viewBox="0 0 24 24" fill="none" xmlns="http://www.w3.org/2000/svg">
<path fill-rule="evenodd" clip-rule="evenodd" d="M12 7.5C9.51472 7.5 7.5 9.51472 7.5 12C7.5 14.4853 9.51472 16.5 12 16.5C14.4853 16.5 16.5 14.4853 16.5 12C16.5 9.51472 14.4853 7.5 12 7.5ZM9 12C9 10.3431 10.3431 9 12 9C13.6568 9 15 10.3431 15 12C15 13.6569 13.6568 15 12 15C10.3431 15 9 13.6569 9 12Z" fill="#21A038"/>
<path fill-rule="evenodd" clip-rule="evenodd" d="M11.9996 3.75C7.0014 3.75 2.69703 6.71633 0.738701 10.9835C0.442569 11.6288 0.442569 12.3712 0.738701 13.0165C2.69703 17.2837 7.0014 20.25 11.9996 20.25C16.9978 20.25 21.3022 17.2837 23.2605 13.0165C23.5567 12.3712 23.5567 11.6288 23.2605 10.9835C21.3022 6.71633 16.9978 3.75 11.9996 3.75ZM2.10199 11.6091C3.82551 7.85362 7.61059 5.25 11.9996 5.25C16.3886 5.25 20.1737 7.85362 21.8972 11.6091C22.0111 11.8572 22.0111 12.1428 21.8972 12.3909C20.1737 16.1464 16.3886 18.75 11.9996 18.75C7.61059 18.75 3.82551 16.1464 2.10199 12.3909C1.98814 12.1428 1.98813 11.8572 2.10199 11.6091Z" fill="#21A038"/>
</svg>
