<svg width="20" height="20" viewBox="0 0 20 20" fill="none" xmlns="http://www.w3.org/2000/svg">
<path d="M19.1924 0.807622C19.5829 1.19813 19.5829 1.83131 19.1924 2.22184L11.4142 10L19.1924 17.7782C19.5829 18.1687 19.5829 18.8019 19.1924 19.1924C18.8019 19.5829 18.1687 19.5829 17.7782 19.1924L10 11.4142L2.22183 19.1924C1.83131 19.5829 1.19812 19.5829 0.807612 19.1924C0.417101 18.8019 0.4171 18.1687 0.807612 17.7782L8.58579 10L0.807612 2.22184C0.417091 1.83131 0.4171 1.19813 0.807612 0.807622C1.19812 0.417111 1.8313 0.417101 2.22183 0.807622L10 8.5858L17.7782 0.807622C18.1687 0.417101 18.8019 0.417111 19.1924 0.807622Z" fill="#232323"/>
</svg>
