<svg width="16" height="16" viewBox="0 0 16 16" fill="none" xmlns="http://www.w3.org/2000/svg">
<path d="M14.8943 1.10572C15.1872 1.3986 15.1872 1.87349 14.8943 2.16638L9.06066 8.00001L14.8943 13.8336C15.1872 14.1265 15.1872 14.6014 14.8943 14.8943C14.6014 15.1872 14.1265 15.1872 13.8336 14.8943L8 9.06067L2.16637 14.8943C1.87349 15.1872 1.39859 15.1872 1.10571 14.8943C0.812825 14.6014 0.812825 14.1265 1.10571 13.8336L6.93934 8.00001L1.10571 2.16638C0.812818 1.87349 0.812825 1.3986 1.10571 1.10572C1.39859 0.812833 1.87348 0.812826 2.16637 1.10572L8 6.93935L13.8336 1.10572C14.1265 0.812826 14.6014 0.812833 14.8943 1.10572Z" fill="white"/>
</svg>
