<svg width="72" height="62" viewBox="0 0 72 62" fill="none" xmlns="http://www.w3.org/2000/svg">
<path d="M39.8459 47.6865C39.8459 49.8096 38.1252 51.5306 36.0021 51.5306C33.8793 51.5306 32.1584 49.8096 32.1584 47.6865C32.1584 45.5637 33.8793 43.8428 36.0021 43.8428C38.1252 43.8428 39.8459 45.5637 39.8459 47.6865Z" fill="#FF4D4D"/>
<path d="M38.5646 20.0696C38.5646 18.6544 37.4176 17.5071 36.0021 17.5071C34.5869 17.5071 33.4396 18.6544 33.4396 20.0696V35.1252C33.4396 36.5404 34.5869 37.6877 36.0021 37.6877C37.4176 37.6877 38.5646 36.5404 38.5646 35.1252V20.0696Z" fill="#FF4D4D"/>
<path fill-rule="evenodd" clip-rule="evenodd" d="M28.8464 4.02412C32.1065 -1.34137 39.8937 -1.34137 43.1539 4.02412L70.4364 48.9251C73.8257 54.5038 69.8101 61.6426 63.2825 61.6426H8.71789C2.19045 61.6426 -1.82543 54.5038 1.56407 48.9251L28.8464 4.02412ZM38.7741 6.68537C37.5099 4.60489 34.4903 4.60489 33.2261 6.68537L5.94397 51.5863C4.62968 53.7494 6.18682 56.5176 8.71789 56.5176H63.2825C65.8136 56.5176 67.3706 53.7494 66.0565 51.5863L38.7741 6.68537Z" fill="#FF4D4D"/>
</svg>
