<svg width="52" height="32" viewBox="0 0 52 32" fill="none" xmlns="http://www.w3.org/2000/svg">
<path d="M10.1216 0.000244141H23.0218C24.8226 0.000244141 25.9426 1.45157 25.5225 3.23806L19.5166 28.7352C19.0927 30.5155 17.2897 31.968 15.4877 31.968H2.5888C0.790563 31.968 -0.331959 30.5155 0.0881217 28.7352L6.0966 3.23806C6.51668 1.45157 8.31869 0.000244141 10.1216 0.000244141Z" fill="#E21836"/>
<path d="M21.948 0.000244141H36.7829C38.5833 0.000244141 37.7715 1.45157 37.3479 3.23806L31.3429 28.7352C30.9216 30.5155 31.053 31.968 29.2488 31.968H14.4139C12.6097 31.968 11.4931 30.5155 11.917 28.7352L17.9217 3.23806C18.3481 1.45157 20.1463 0.000244141 21.948 0.000244141Z" fill="#00447C"/>
<path d="M36.1944 0.000244141H49.0946C50.8979 0.000244141 52.0179 1.45157 51.5944 3.23806L45.5894 28.7352C45.1655 30.5155 43.3613 31.968 41.5583 31.968H28.6641C26.8599 31.968 25.7408 30.5155 26.1634 28.7352L32.1694 3.23806C32.5895 1.45157 34.3902 0.000244141 36.1944 0.000244141Z" fill="#007B84"/>
<path d="M13.4904 8.17124C12.1638 8.18461 11.772 8.17124 11.6469 8.14201C11.5988 8.36805 10.7036 12.4512 10.7011 12.4547C10.5083 13.2807 10.3681 13.8696 9.89174 14.2498C9.62133 14.4709 9.30564 14.5775 8.93964 14.5775C8.35134 14.5775 8.00861 14.2887 7.95107 13.7409L7.94006 13.5528C7.94006 13.5528 8.11929 12.4463 8.11929 12.44C8.11929 12.44 9.05881 8.71906 9.22703 8.2272C9.23584 8.19922 9.23835 8.18461 9.24055 8.17124C7.41182 8.1871 7.08764 8.17124 7.06531 8.14201C7.05305 8.18212 7.00777 8.41282 7.00777 8.41282L6.04844 12.6067L5.96606 12.9624L5.80664 14.1258C5.80664 14.4709 5.87519 14.7526 6.01165 14.9907C6.44871 15.7459 7.69543 15.8591 8.4007 15.8591C9.30941 15.8591 10.1618 15.6682 10.7379 15.3197C11.7378 14.7355 11.9994 13.8223 12.2327 13.0109L12.3409 12.5946C12.3409 12.5946 13.3087 8.72995 13.4731 8.2272C13.4794 8.19922 13.4819 8.18461 13.4904 8.17124ZM16.7834 11.2889C16.5501 11.2889 16.1237 11.3448 15.7407 11.5304C15.6017 11.601 15.4703 11.6825 15.3316 11.7636L15.4568 11.3168L15.3882 11.2416C14.5761 11.4042 14.3943 11.426 13.6441 11.5304L13.5812 11.5718C13.4941 12.286 13.4167 12.8229 13.0938 14.2267C12.9709 14.744 12.8432 15.2663 12.7152 15.7824L12.7498 15.848C13.5186 15.8079 13.7519 15.8079 14.4201 15.8188L14.4742 15.7607C14.5591 15.3307 14.5701 15.23 14.7581 14.3591C14.8465 13.9462 15.0307 13.039 15.1216 12.7159C15.2886 12.6395 15.4533 12.5642 15.6105 12.5642C15.985 12.5642 15.9394 12.8873 15.925 13.016C15.9089 13.2321 15.7725 13.9378 15.6325 14.5438L15.5392 14.9349C15.4741 15.2237 15.4027 15.5045 15.3376 15.7908L15.3659 15.848C16.1237 15.8079 16.3548 15.8079 17.0019 15.8188L17.078 15.7607C17.195 15.0891 17.2292 14.9094 17.4368 13.9316L17.5411 13.4823C17.744 12.6031 17.8458 12.1572 17.6924 11.7941C17.5301 11.3871 17.1409 11.2889 16.7834 11.2889ZM20.462 12.2094C20.0592 12.2859 19.8023 12.3369 19.547 12.3699C19.2939 12.41 19.047 12.4463 18.6578 12.4998L18.6269 12.5275L18.5986 12.5496C18.5581 12.8362 18.5298 13.084 18.476 13.3753C18.4304 13.6766 18.3603 14.0189 18.2462 14.5108C18.1578 14.8873 18.1122 15.0185 18.0619 15.151C18.0129 15.2834 17.9588 15.4121 17.8594 15.7824L17.8827 15.8166L17.9022 15.848C18.266 15.8309 18.504 15.8188 18.7486 15.8166C18.9929 15.8079 19.2461 15.8166 19.6378 15.8188L19.6721 15.7911L19.7089 15.7607C19.7655 15.4267 19.774 15.3369 19.8086 15.174C19.8429 14.9992 19.902 14.7573 20.0469 14.1113C20.1155 13.8078 20.1919 13.5053 20.2629 13.1956C20.3368 12.8872 20.4142 12.5835 20.4878 12.28L20.4767 12.2433L20.462 12.2094ZM20.4706 10.9682C20.1046 10.7546 19.4622 10.8224 19.0298 11.1175C18.5987 11.4066 18.5497 11.817 18.9144 12.0334C19.2741 12.2411 19.919 12.1792 20.3476 11.8817C20.7778 11.5863 20.8315 11.1796 20.4706 10.9682ZM22.684 15.915C23.4245 15.915 24.1835 15.7132 24.7548 15.1144C25.1944 14.6287 25.396 13.9062 25.4658 13.6086C25.6931 12.6224 25.5161 12.162 25.2938 11.8815C24.9561 11.454 24.3593 11.3169 23.7402 11.3169C23.3679 11.3169 22.4812 11.3533 21.7885 11.9847C21.2911 12.4402 21.0612 13.0583 20.9225 13.6509C20.7826 14.2547 20.6216 15.3416 21.6325 15.7461C21.9445 15.8786 22.3941 15.915 22.684 15.915ZM22.6261 13.696C22.7969 12.9492 22.9984 12.3224 23.5128 12.3224C23.9159 12.3224 23.9452 12.7888 23.766 13.538C23.7339 13.7044 23.5867 14.3228 23.3877 14.5861C23.2487 14.7804 23.0843 14.8983 22.9025 14.8983C22.8484 14.8983 22.5268 14.8983 22.5217 14.426C22.5192 14.1928 22.5673 13.9547 22.6261 13.696ZM27.3168 15.8189L27.3747 15.7608C27.4568 15.3308 27.4703 15.2297 27.652 14.3592C27.7429 13.9463 27.9309 13.0391 28.0193 12.716C28.1866 12.6392 28.3485 12.564 28.5107 12.564C28.8827 12.564 28.8374 12.887 28.8227 13.0158C28.8091 13.2321 28.6727 13.9376 28.5302 14.5436L28.4419 14.9347C28.3743 15.2238 28.3007 15.5043 28.2356 15.7909L28.2639 15.8481C29.0242 15.808 29.2465 15.808 29.8974 15.8189L29.976 15.7608C30.0901 15.0889 30.1209 14.9092 30.3348 13.9317L30.4366 13.4821C30.6404 12.6029 30.7435 12.1573 30.5926 11.7942C30.4256 11.3872 30.0338 11.289 29.6814 11.289C29.4477 11.289 29.0192 11.3446 28.6384 11.5305C28.5022 11.6011 28.3658 11.6823 28.2318 11.7637L28.3485 11.3169L28.2859 11.2414C27.4741 11.4043 27.2885 11.4261 26.5392 11.5305L26.4817 11.5719C26.3908 12.286 26.3169 12.8227 25.994 14.2267C25.8711 14.7441 25.7434 15.2664 25.6158 15.7825L25.65 15.8481C26.4201 15.808 26.6499 15.808 27.3168 15.8189ZM32.9029 15.848C32.9507 15.6173 33.2346 14.2499 33.2371 14.2499C33.2371 14.2499 33.4789 13.2466 33.4937 13.2102C33.4937 13.2102 33.5698 13.1058 33.6459 13.0644H33.7578C34.814 13.0644 36.0066 13.0644 36.9414 12.3844C37.5775 11.9181 38.0124 11.2294 38.2064 10.3924C38.2567 10.1872 38.2938 9.94318 38.2938 9.69912C38.2938 9.37857 38.2287 9.06144 38.0407 8.81364C37.564 8.1542 36.6147 8.14208 35.519 8.1371C35.5155 8.1371 34.9788 8.14208 34.9788 8.14208C33.5761 8.15918 33.0136 8.1542 32.7825 8.12622C32.763 8.22727 32.7262 8.40697 32.7262 8.40697C32.7262 8.40697 32.2237 10.7096 32.2237 10.7133C32.2237 10.7133 31.0213 15.6089 30.9647 15.8396C32.1894 15.825 32.6916 15.825 32.9029 15.848ZM33.8339 11.7577C33.8339 11.7577 34.3681 9.45971 34.3656 9.46842L34.3829 9.35058L34.3905 9.26073L34.604 9.2825C34.604 9.2825 35.7057 9.37608 35.7315 9.37857C36.1664 9.5449 36.3456 9.97365 36.2204 10.5333C36.1063 11.0447 35.7708 11.4747 35.3397 11.6824C34.9847 11.8584 34.5499 11.873 34.1018 11.873H33.8119L33.8339 11.7577ZM37.1601 13.7386C37.0189 14.3336 36.8567 15.4206 37.8625 15.808C38.1833 15.9429 38.4706 15.983 38.7628 15.9684C39.0712 15.9519 39.357 15.799 39.6218 15.5788C39.5979 15.6693 39.574 15.7598 39.5501 15.8506L39.5957 15.9087C40.3192 15.8785 40.5437 15.8786 41.3276 15.8845L41.3986 15.831C41.5131 15.1656 41.6209 14.5196 41.9184 13.2467C42.0634 12.637 42.208 12.0332 42.3567 11.426L42.3334 11.3592C41.5241 11.5075 41.3078 11.5392 40.5292 11.6483L40.4701 11.6959C40.4623 11.7577 40.4541 11.8171 40.4465 11.8765C40.3255 11.6831 40.15 11.518 39.8793 11.4151C39.5331 11.2805 38.72 11.454 38.021 12.0833C37.5299 12.5325 37.294 13.1481 37.1601 13.7386ZM38.8599 13.7749C39.0332 13.0415 39.2322 12.4209 39.7479 12.4209C40.0739 12.4209 40.2456 12.7185 40.2107 13.2259C40.183 13.3524 40.1532 13.4858 40.1176 13.6366C40.0661 13.8545 40.0101 14.0706 39.9557 14.287C39.9004 14.435 39.8359 14.5746 39.7652 14.6676C39.6325 14.8535 39.3168 14.9688 39.135 14.9688C39.0835 14.9688 38.7653 14.9688 38.7543 14.5049C38.7518 14.2739 38.7999 14.0361 38.8599 13.7749ZM47.7365 11.3532L47.6739 11.2826C46.8731 11.4431 46.7281 11.4686 45.9923 11.5668L45.9383 11.6203C45.9357 11.629 45.9335 11.6424 45.9298 11.6545L45.9272 11.6424C45.3795 12.8919 45.3955 12.6224 44.9497 13.6061C44.9472 13.5613 44.9472 13.5333 44.9446 13.4858L44.833 11.3532L44.7629 11.2826C43.924 11.4431 43.9042 11.4686 43.1294 11.5668L43.0691 11.6203C43.0606 11.6458 43.0606 11.6738 43.0555 11.7042L43.0606 11.7151C43.1574 12.2045 43.1341 12.0954 43.2313 12.8677C43.2766 13.2467 43.337 13.6278 43.3822 14.0022C43.4586 14.6287 43.5014 14.9371 43.5948 15.8931C43.0716 16.7469 42.9477 17.0699 42.444 17.8192L42.4474 17.8267L42.0928 18.3813C42.0522 18.4398 42.0154 18.4799 41.9638 18.497C41.9072 18.5247 41.8337 18.5297 41.7315 18.5297H41.5349L41.2428 19.4904L42.2449 19.5075C42.8332 19.505 43.203 19.2329 43.402 18.8673L44.0322 17.7996H44.0221L44.0884 17.7244C44.5123 16.8221 47.7365 11.3532 47.7365 11.3532ZM37.1601 23.9707H36.735L38.3084 18.8249H38.8303L38.996 18.2948L39.0121 18.8842C38.9926 19.2486 39.2825 19.5717 40.044 19.5182H40.9248L41.2279 18.5273H40.8965C40.7059 18.5273 40.6176 18.4797 40.6286 18.3778L40.6125 17.778H38.9816V17.7811C38.4543 17.792 36.8796 17.8312 36.5608 17.9151C36.1749 18.0134 35.7684 18.3025 35.7684 18.3025L35.9281 17.7718H34.4025L34.0846 18.8249L32.4901 24.0494H32.1807L31.8773 25.0331H34.916L34.8141 25.3611H36.3114L36.4108 25.0331H36.8309L37.1601 23.9707ZM35.9133 19.8705C35.669 19.9373 35.2144 20.14 35.2144 20.14L35.6187 18.8249H36.8309L36.5384 19.7831C36.5384 19.7831 36.1639 19.8048 35.9133 19.8705ZM35.9366 21.7493C35.9366 21.7493 35.5558 21.7965 35.3052 21.8525C35.0584 21.9265 34.5956 22.1597 34.5956 22.1597L35.0131 20.7911H36.2316L35.9366 21.7493ZM35.2574 23.9829H34.0415L34.394 22.8278H35.6061L35.2574 23.9829ZM38.1856 20.7911H39.9383L39.6864 21.5976H37.9105L37.6439 22.4793H39.1978L38.0212 24.1175C37.9388 24.2378 37.8649 24.2804 37.7828 24.3143C37.7004 24.3556 37.5923 24.4041 37.4671 24.4041H37.0361L36.7399 25.3698H37.8674C38.4535 25.3698 38.7997 25.1062 39.0553 24.7601L39.8622 23.6682L40.0354 24.7769C40.0722 24.9846 40.2231 25.1062 40.3253 25.1534C40.4382 25.2094 40.5549 25.3055 40.7196 25.3198C40.8963 25.3272 41.024 25.3331 41.1089 25.3331H41.6629L41.9956 24.2524H41.7771C41.6516 24.2524 41.4356 24.2316 41.3988 24.1927C41.362 24.1455 41.362 24.0727 41.3422 23.962L41.1664 22.8508H40.4467L40.7624 22.4793H42.5348L42.8075 21.5976H41.1664L41.4221 20.7911H43.0581L43.3615 19.7965H38.484L38.1856 20.7911ZM23.3827 24.2074L23.7918 22.8618H25.4731L25.7803 21.861H24.0974L24.3543 21.0327H25.9988L26.3035 20.0636H22.1888L21.8904 21.0327H22.8252L22.5759 21.861H21.6386L21.3279 22.8789H22.2624L21.7172 24.6592C21.6436 24.8949 21.7518 24.9847 21.8203 25.0941C21.8904 25.2008 21.9615 25.2714 22.1212 25.3115C22.286 25.3478 22.3989 25.3696 22.5523 25.3696H24.4477L24.7854 24.2609L23.9452 24.375C23.783 24.375 23.3337 24.3557 23.3827 24.2074ZM23.5756 17.7657L23.1495 18.5272C23.0583 18.6935 22.9763 18.7967 22.9024 18.8443C22.8373 18.8844 22.7084 18.9012 22.5216 18.9012H22.2993L22.0021 19.8753H22.7404C23.0954 19.8753 23.368 19.7466 23.4982 19.6822C23.6381 19.6082 23.6749 19.6505 23.7831 19.5473L24.0324 19.3337H26.3379L26.6438 18.3195H24.9562L25.2509 17.7657H23.5756ZM26.9791 24.227C26.9398 24.171 26.9681 24.0725 27.0282 23.8673L27.6583 21.805H29.8999C30.2266 21.8003 30.4624 21.7966 30.6158 21.7857C30.7806 21.7686 30.9598 21.7105 31.1551 21.606C31.3566 21.4966 31.4598 21.3812 31.5469 21.2488C31.644 21.1166 31.8 20.8275 31.9339 20.3816L32.726 17.7719L30.3998 17.7852C30.3998 17.7852 29.6835 17.8897 29.3682 18.0051C29.05 18.1338 28.5953 18.4932 28.5953 18.4932L28.8053 17.7778H27.3684L25.3566 24.375C25.2853 24.6312 25.2375 24.8171 25.2265 24.9287C25.2227 25.049 25.3799 25.1681 25.4818 25.258C25.6022 25.3478 25.7802 25.3332 25.9509 25.3478C26.1305 25.3612 26.3858 25.3696 26.7383 25.3696H27.8425L28.1815 24.2379L27.1929 24.3302C27.0873 24.3302 27.0109 24.2742 26.9791 24.227ZM28.0648 20.4121H30.4193L30.2696 20.876C30.2486 20.8869 30.1983 20.853 29.9587 20.881H27.9199L28.0648 20.4121ZM28.5365 18.8563H30.9108L30.74 19.415C30.74 19.415 29.621 19.4041 29.4417 19.4368C28.6531 19.5717 28.1925 19.9883 28.1925 19.9883L28.5365 18.8563ZM30.3223 22.4294C30.3028 22.4987 30.272 22.541 30.229 22.5727C30.1812 22.6032 30.1038 22.6141 29.9884 22.6141H29.6529L29.6727 22.0492H28.2773L28.2207 24.811C28.2185 25.0103 28.238 25.1256 28.3854 25.218C28.5329 25.3333 28.9873 25.3479 29.5988 25.3479H30.4733L30.789 24.3141L30.0277 24.3555L29.7746 24.3701C29.74 24.3555 29.707 24.3421 29.6702 24.3057C29.6381 24.2743 29.584 24.2936 29.5929 24.0943L29.5988 23.3864L30.3972 23.3537C30.8283 23.3537 31.0125 23.2151 31.1697 23.0829C31.3197 22.9564 31.3688 22.8109 31.4254 22.6141L31.5593 21.9873H30.4623L30.3223 22.4294Z" fill="#FEFEFE"/>
</svg>
