<svg width="32" height="32" viewBox="0 0 32 32" fill="none" xmlns="http://www.w3.org/2000/svg">
<path d="M7.00067 7C7.00067 6.44772 6.55295 6 6.00067 6C5.44838 6 5.00067 6.44772 5.00067 7V25C5.00067 25.5523 5.44838 26 6.00067 26C6.55295 26 7.00067 25.5523 7.00067 25V7Z" fill="#222222"/>
<path d="M10.0005 6C10.5528 6 11.0005 6.44772 11.0005 7V21.9143C11.0005 22.4665 10.5528 22.9143 10.0005 22.9143C9.44819 22.9143 9.00049 22.4665 9.00049 21.9143V7C9.00049 6.44772 9.44819 6 10.0005 6Z" fill="#222222"/>
<path d="M15.0005 7C15.0005 6.44772 14.5528 6 14.0005 6C13.4483 6 13.0005 6.44772 13.0005 7V21.9143C13.0005 22.4665 13.4483 22.9143 14.0005 22.9143C14.5528 22.9143 15.0005 22.4665 15.0005 21.9143V7Z" fill="#222222"/>
<path d="M18.0005 6C18.5528 6 19.0005 6.44772 19.0005 7V25C19.0005 25.5523 18.5528 26 18.0005 26C17.4483 26 17.0005 25.5523 17.0005 25V7C17.0005 6.44772 17.4483 6 18.0005 6Z" fill="#222222"/>
<path d="M23.0006 7C23.0006 6.44772 22.5528 6 22.0006 6C21.4483 6 21.0005 6.44772 21.0005 7V21.9143C21.0005 22.4665 21.4483 22.9143 22.0006 22.9143C22.5528 22.9143 23.0006 22.4665 23.0006 21.9143V7Z" fill="#222222"/>
<path d="M27.0005 7C27.0005 6.44772 26.5528 6 26.0005 6C25.4483 6 25.0005 6.44772 25.0005 7V25C25.0005 25.5523 25.4483 26 26.0005 26C26.5528 26 27.0005 25.5523 27.0005 25V7Z" fill="#222222"/>
</svg>
