<svg width="24" height="24" viewBox="0 0 24 24" fill="none" xmlns="http://www.w3.org/2000/svg">
<path d="M8.25 8.25008C7.83578 8.25008 7.5 8.58585 7.5 9.00008C7.5 9.41423 7.83578 9.75008 8.25 9.75008H15.75C16.1642 9.75008 16.5 9.41423 16.5 9.00008C16.5 8.58585 16.1642 8.25008 15.75 8.25008H8.25Z" fill="#232323"/>
<path d="M7.5 12.0001C7.5 11.5859 7.83578 11.2501 8.25 11.2501H15.75C16.1642 11.2501 16.5 11.5859 16.5 12.0001C16.5 12.4142 16.1642 12.7501 15.75 12.7501H8.25C7.83578 12.7501 7.5 12.4142 7.5 12.0001Z" fill="#232323"/>
<path d="M12.375 14.2501C11.9608 14.2501 11.625 14.5859 11.625 15.0001C11.625 15.4142 11.9608 15.7501 12.375 15.7501H15.75C16.1642 15.7501 16.5 15.4142 16.5 15.0001C16.5 14.5859 16.1642 14.2501 15.75 14.2501H12.375Z" fill="#232323"/>
<path fill-rule="evenodd" clip-rule="evenodd" d="M12.7657 21.7088C12.2852 21.9597 11.7121 21.9586 11.2325 21.7058L8.70382 20.3729C8.6592 20.3493 8.6058 20.3498 8.56162 20.3741L6.19457 21.6747C5.09494 22.2789 3.75 21.4833 3.75 20.2286V3.76613C3.75 2.51369 5.09059 1.71787 6.1901 2.31761L8.56238 3.61158C8.60633 3.63554 8.65928 3.63602 8.70368 3.61286L11.2362 2.2903C11.7148 2.0404 12.2852 2.0404 12.7638 2.2903L15.2963 3.61286C15.3407 3.63602 15.3937 3.63554 15.4376 3.61158L17.8099 2.31761C18.9094 1.71787 20.25 2.51369 20.25 3.76613V20.234C20.25 21.4864 18.9094 22.2822 17.8099 21.6825L15.4376 20.3885C15.3937 20.3645 15.3407 20.3641 15.2963 20.3873L12.7657 21.7088ZM11.932 20.3789C11.9756 20.4019 12.0277 20.402 12.0714 20.3792L14.602 19.0577C15.0898 18.8028 15.6727 18.8081 16.1559 19.0717L18.5282 20.3657C18.6281 20.4202 18.75 20.3478 18.75 20.234V3.76613C18.75 3.65227 18.6281 3.57992 18.5282 3.63445L16.1559 4.92842C15.6727 5.19199 15.0898 5.19725 14.602 4.94247L12.0695 3.61991C12.0259 3.5972 11.9741 3.5972 11.9305 3.61991L9.39802 4.94247C8.91015 5.19725 8.32733 5.19199 7.8441 4.92842L5.47183 3.63445C5.37188 3.57992 5.25 3.65227 5.25 3.76613V20.2286C5.25 20.3427 5.37226 20.415 5.47223 20.3601L7.8393 19.0595C8.32523 18.7925 8.91277 18.7874 9.40327 19.0459L11.932 20.3789Z" fill="#232323"/>
</svg>
