<svg width="24" height="24" viewBox="0 0 24 24" fill="none" xmlns="http://www.w3.org/2000/svg">
<path d="M12.9375 16.875C12.9375 17.3928 12.5178 17.8125 12 17.8125C11.4822 17.8125 11.0625 17.3928 11.0625 16.875C11.0625 16.3572 11.4822 15.9375 12 15.9375C12.5178 15.9375 12.9375 16.3572 12.9375 16.875Z" fill="#232323"/>
<path d="M9.74969 10.125C9.74969 9.18045 10.66 8.25 12.0001 8.25C13.3401 8.25 14.2504 9.18045 14.2504 10.125C14.2504 10.5785 14.1209 10.8512 13.9528 11.0552C13.7629 11.2854 13.4911 11.4697 13.1202 11.6876C13.0736 11.715 13.024 11.7436 12.9722 11.7736C12.6595 11.9539 12.2659 12.1812 11.9586 12.4664C11.5543 12.8417 11.2501 13.3528 11.2501 14.0625C11.2501 14.4767 11.5858 14.8125 12.0001 14.8125C12.4142 14.8125 12.7501 14.4767 12.7501 14.0625C12.7501 13.8453 12.8207 13.7128 12.9791 13.5658C13.1522 13.405 13.3758 13.2749 13.6969 13.0879C13.7548 13.0542 13.8157 13.0187 13.8802 12.9809C14.2594 12.758 14.7376 12.4614 15.1103 12.0091C15.5047 11.5306 15.7504 10.919 15.7504 10.125C15.7504 8.17005 13.974 6.75 12.0001 6.75C10.0261 6.75 8.24969 8.17005 8.24969 10.125C8.24969 10.5392 8.58547 10.875 8.99969 10.875C9.41392 10.875 9.74969 10.5392 9.74969 10.125Z" fill="#232323"/>
<path fill-rule="evenodd" clip-rule="evenodd" d="M2.25 12C2.25 6.61522 6.61522 2.25 12 2.25C17.3848 2.25 21.75 6.61522 21.75 12C21.75 17.3848 17.3848 21.75 12 21.75C6.61522 21.75 2.25 17.3848 2.25 12ZM12 3.75C7.44365 3.75 3.75 7.44365 3.75 12C3.75 16.5563 7.44365 20.25 12 20.25C16.5563 20.25 20.25 16.5563 20.25 12C20.25 7.44365 16.5563 3.75 12 3.75Z" fill="#232323"/>
</svg>
