<svg width="32" height="32" viewBox="0 0 32 32" fill="none" xmlns="http://www.w3.org/2000/svg">
<rect width="32" height="32" rx="16" fill="#FF5A00"/>
<path fill-rule="evenodd" clip-rule="evenodd" d="M13.2444 6.30683C13.5537 5.64744 14.2911 5.30456 14.9946 5.49307L21.0473 7.11502C22.0121 7.37354 22.4611 8.48353 21.9476 9.34009L19.2206 13.8882L22.3072 14.7152C23.5271 15.0421 23.8247 16.6363 22.8049 17.3812L11.2013 25.8571C10.2647 26.5413 9.02976 25.5356 9.51005 24.4798L12.7565 17.3438L10.3262 16.6926C9.4221 16.4503 8.95682 15.4497 9.35422 14.6022L13.2444 6.30683ZM20.6582 8.56707L14.6055 6.94511L10.7153 15.2405L13.5741 16.0065C14.2471 16.1869 14.597 16.9283 14.3085 17.5624L11.4718 23.798L21.9181 16.1673L18.3504 15.2113C17.6268 15.0174 17.2901 14.1849 17.6752 13.5425L20.6582 8.56707Z" fill="white"/>
</svg>
