<svg width="32" height="32" viewBox="0 0 32 32" fill="none" xmlns="http://www.w3.org/2000/svg">
<rect width="32" height="32" rx="16" fill="#232323"/>
<path d="M7.09653 18.0082C6.95416 17.8658 6.90975 17.6525 6.98346 17.4652L10.166 9.37473C10.4132 8.74629 11.0127 8.32705 11.6879 8.31058C12.1473 8.29938 12.5913 8.47698 12.9163 8.80197L15.8956 11.7812C16.7847 12.6703 16.7847 14.1119 15.8956 15.0011L11.6024 19.2942C10.7133 20.1833 9.27172 20.1833 8.38258 19.2942L7.09653 18.0082Z" fill="url(#paint0_linear_337_18576)"/>
<path d="M8.11396 19.0258L7.39844 18.3103C7.39844 18.3103 7.5326 18.4445 8.02452 18.4892C8.28951 18.5186 8.38228 18.4892 8.78476 18.355C11.3592 15.7806 15.4471 11.6927 17.5968 9.54303C18.3871 8.75268 19.6664 8.7548 20.4567 9.54515L25.426 14.5144C26.2164 15.3048 26.2164 16.5862 25.426 17.3765L17.3764 25.4262C16.5861 26.2165 15.3047 26.2165 14.5143 25.4262L8.11396 19.0258Z" fill="url(#paint1_linear_337_18576)"/>
<path d="M11.015 21.9264L10.7979 21.7092C10.7979 21.7092 10.8386 21.7499 10.9841 21.7672C11.0626 21.7781 11.0897 21.7702 11.2074 21.7339C11.9677 20.9736 13.1882 19.7532 13.7885 19.1529C13.9861 18.9553 14.3056 18.9561 14.5032 19.1537L16.1643 20.8148C16.3619 21.0124 16.3619 21.3328 16.1643 21.5303L13.7494 23.9452C13.5518 24.1428 13.2314 24.1428 13.0339 23.9452L11.015 21.9264Z" fill="#232323"/>
<defs>
<linearGradient id="paint0_linear_337_18576" x1="7.7565" y1="11.1551" x2="13.749" y2="17.1476" gradientUnits="userSpaceOnUse">
<stop stop-color="white"/>
<stop offset="1" stop-color="#828282"/>
</linearGradient>
<linearGradient id="paint1_linear_337_18576" x1="14.5614" y1="25.7557" x2="8.59176" y2="17.61" gradientUnits="userSpaceOnUse">
<stop stop-color="#54ACB8"/>
<stop offset="0.54" stop-color="#21A038"/>
<stop offset="1" stop-color="#83DA4E"/>
</linearGradient>
</defs>
</svg>
